<svg width="153" height="74" viewBox="0 0 153 74" fill="none" xmlns="http://www.w3.org/2000/svg">
<path d="M116 38H107V47C111.926 47 116 42.9263 116 38Z" fill="#00CC92"/>
<path d="M116 47V56H125C125 51.0737 120.926 47 116 47Z" fill="#00CC92"/>
<path d="M125 65V56H116C116 60.9263 120.074 65 125 65Z" fill="#00CC92"/>
<path d="M134 56H125V65C129.926 65 134 60.9263 134 56Z" fill="#00CC92"/>
<path d="M125 56H134V47C129.074 47 125 51.0737 125 56Z" fill="#00CC92"/>
<path d="M143 65V56H134C134 60.9263 138.074 65 143 65Z" fill="#00CC92"/>
<path d="M134 47V56H143C143 51.0737 138.926 47 134 47Z" fill="#00CC92"/>
<path d="M143 74V65H134C134 69.9263 138.074 74 143 74Z" fill="#00CC92"/>
<path d="M143 56H152V47C147.074 47 143 51.0737 143 56Z" fill="#00CC92"/>
<path d="M152 65H143V74C147.926 74 152 69.9263 152 65Z" fill="#00CC92"/>
<rect x="107" y="47" width="9" height="9" fill="#00CC92"/>
<rect x="143" y="56" width="9" height="9" fill="#00CC92"/>
<rect x="107" y="56" width="9" height="9" fill="#00CC92"/>
<path d="M81.9551 65.2871C81.0163 65.2871 80.1549 65.082 79.3711 64.6719C78.5964 64.2617 77.9674 63.6374 77.4844 62.7988H77.457V65H74.627V44.6289H77.5117V52.6543H77.5391C78.0039 51.8522 78.6237 51.2552 79.3984 50.8633C80.1732 50.4714 81.0299 50.2754 81.9688 50.2754C83.2083 50.2754 84.2975 50.5944 85.2363 51.2324C86.1751 51.8613 86.9043 52.7409 87.4238 53.8711C87.9525 54.9922 88.2168 56.2956 88.2168 57.7812C88.2168 59.2669 87.957 60.5749 87.4375 61.7051C86.918 62.8262 86.1888 63.7057 85.25 64.3438C84.3112 64.9727 83.2129 65.2871 81.9551 65.2871ZM81.3672 62.7988C82.5339 62.7988 83.4772 62.3704 84.1973 61.5137C84.9264 60.6569 85.291 59.4128 85.291 57.7812C85.291 56.1497 84.9264 54.9056 84.1973 54.0488C83.4772 53.1829 82.5339 52.75 81.3672 52.75C80.1367 52.75 79.1523 53.2103 78.4141 54.1309C77.6849 55.0423 77.3203 56.2591 77.3203 57.7812C77.3203 59.2943 77.6849 60.5111 78.4141 61.4316C79.1523 62.3431 80.1367 62.7988 81.3672 62.7988ZM89.2843 70.7148V68.2812H90.8429C91.2986 68.2812 91.6678 68.1491 91.9503 67.8848C92.242 67.6296 92.4972 67.2057 92.7159 66.6133L93.3722 64.9043L87.7941 50.5625H90.8839L93.7687 58.4785C93.9601 59.0163 94.1469 59.5586 94.3292 60.1055C94.5115 60.6432 94.6892 61.181 94.8624 61.7188C95.0356 61.181 95.2133 60.6432 95.3956 60.1055C95.587 59.5586 95.7784 59.0163 95.9698 58.4785L98.8136 50.5625H101.862L95.2999 67.5293C94.4887 69.653 93.0942 70.7148 91.1163 70.7148H89.2843Z" fill="white"/>
<path d="M11.9531 31.375C9.86979 31.375 8 30.8906 6.34375 29.9219C4.6875 28.9427 3.38021 27.5573 2.42188 25.7656C1.46354 23.9635 0.984375 21.8333 0.984375 19.375C0.984375 16.8958 1.46354 14.7604 2.42188 12.9688C3.38021 11.1667 4.6875 9.78125 6.34375 8.8125C8 7.83333 9.86979 7.34375 11.9531 7.34375C14.0469 7.34375 15.9167 7.83333 17.5625 8.8125C19.2188 9.78125 20.526 11.1667 21.4844 12.9688C22.4531 14.7604 22.9375 16.8958 22.9375 19.375C22.9375 21.8438 22.4531 23.974 21.4844 25.7656C20.526 27.5573 19.2188 28.9427 17.5625 29.9219C15.9167 30.8906 14.0469 31.375 11.9531 31.375ZM11.9531 27.125C13.7552 27.125 15.2292 26.4531 16.375 25.1094C17.5208 23.7552 18.0938 21.8438 18.0938 19.375C18.0938 16.8958 17.5208 14.9792 16.375 13.625C15.2292 12.2708 13.7552 11.5938 11.9531 11.5938C10.1615 11.5938 8.69271 12.2708 7.54688 13.625C6.40104 14.9792 5.82812 16.8958 5.82812 19.375C5.82812 21.8438 6.40104 23.7552 7.54688 25.1094C8.69271 26.4531 10.1615 27.125 11.9531 27.125ZM24.6025 37.5312V14.5H29.1494V16.7344H29.1963C29.7067 15.8802 30.3785 15.2396 31.2119 14.8125C32.0556 14.375 33.014 14.1562 34.0869 14.1562C35.4931 14.1562 36.7275 14.5208 37.79 15.25C38.8629 15.9688 39.6963 16.974 40.29 18.2656C40.8942 19.5573 41.1963 21.0469 41.1963 22.7344C41.1963 24.4531 40.8994 25.9583 40.3056 27.25C39.7119 28.5417 38.8785 29.5469 37.8056 30.2656C36.7431 30.9844 35.4931 31.3438 34.0556 31.3438C31.816 31.3438 30.2171 30.4062 29.2588 28.5312H29.2119V37.5312H24.6025ZM32.8681 27.5938C33.9827 27.5938 34.8733 27.1719 35.54 26.3281C36.2171 25.474 36.5556 24.276 36.5556 22.7344C36.5556 21.1927 36.2171 20 35.54 19.1562C34.8733 18.3021 33.9827 17.875 32.8681 17.875C31.7015 17.875 30.764 18.3177 30.0556 19.2031C29.3473 20.0885 28.9931 21.2656 28.9931 22.7344C28.9931 24.2135 29.3473 25.3958 30.0556 26.2812C30.764 27.1562 31.7015 27.5938 32.8681 27.5938ZM50.2988 31.375C48.6321 31.375 47.179 31.0052 45.9394 30.2656C44.7102 29.526 43.7519 28.5104 43.0644 27.2188C42.3873 25.9167 42.0488 24.4323 42.0488 22.7656C42.0488 21.0885 42.3925 19.599 43.08 18.2969C43.7779 16.9948 44.7363 15.974 45.955 15.2344C47.1738 14.4948 48.5696 14.125 50.1425 14.125C51.7675 14.125 53.1842 14.4896 54.3925 15.2188C55.6113 15.9375 56.5592 16.9427 57.2363 18.2344C57.9238 19.5156 58.2675 20.9948 58.2675 22.6719V23.9062H46.5331C46.5748 25.125 46.9342 26.099 47.6113 26.8281C48.2883 27.5573 49.231 27.9219 50.4394 27.9219C51.3352 27.9219 52.08 27.7292 52.6738 27.3438C53.2779 26.9583 53.6842 26.4479 53.8925 25.8125H58.0956C57.8977 26.9062 57.4342 27.8698 56.705 28.7031C55.9758 29.5365 55.0592 30.1927 53.955 30.6719C52.8508 31.1406 51.6321 31.375 50.2988 31.375ZM46.5644 20.9688H53.9238C53.8092 19.9375 53.4238 19.125 52.7675 18.5312C52.1217 17.9271 51.2779 17.625 50.2363 17.625C49.205 17.625 48.3665 17.9271 47.7206 18.5312C47.0748 19.125 46.6894 19.9375 46.5644 20.9688ZM64.3856 21.8281V31H59.7762V14.5H64.3075V17.0938C64.87 16.1562 65.5731 15.4323 66.4169 14.9219C67.2606 14.4115 68.2762 14.1562 69.4637 14.1562C71.2137 14.1562 72.6148 14.724 73.6669 15.8594C74.719 16.9844 75.245 18.5885 75.245 20.6719V31H70.6512V21.5156C70.6512 20.4115 70.3856 19.5729 69.8544 19C69.3231 18.4167 68.5783 18.125 67.62 18.125C66.6721 18.125 65.896 18.4219 65.2919 19.0156C64.6877 19.6094 64.3856 20.5469 64.3856 21.8281ZM77.6756 31V7.71875H86.9881C88.7381 7.71875 90.2485 8.03125 91.5194 8.65625C92.8006 9.27083 93.785 10.151 94.4725 11.2969C95.1704 12.4427 95.5194 13.7969 95.5194 15.3594C95.5194 16.901 95.1496 18.2344 94.41 19.3594C93.6808 20.4844 92.6652 21.349 91.3631 21.9531L96.035 31H90.8788L86.7538 22.8594C86.7433 22.8594 86.7277 22.8594 86.7069 22.8594H82.4881V31H77.6756ZM82.4881 19H86.7069C87.9777 19 88.9777 18.6719 89.7069 18.0156C90.4465 17.349 90.8163 16.4635 90.8163 15.3594C90.8163 14.2448 90.4465 13.3594 89.7069 12.7031C88.9673 12.0469 87.9621 11.7188 86.6913 11.7188H82.4881V19ZM102.059 31.2812C100.414 31.2812 99.0542 30.8698 97.9812 30.0469C96.9187 29.224 96.3875 27.9896 96.3875 26.3438C96.3875 25.1042 96.6844 24.1354 97.2781 23.4375C97.8719 22.7292 98.6583 22.2135 99.6375 21.8906C100.617 21.5677 101.679 21.3542 102.825 21.25C104.335 21.0938 105.393 20.9375 105.997 20.7812C106.601 20.625 106.903 20.2812 106.903 19.75V19.6406C106.903 19.0365 106.664 18.5417 106.184 18.1562C105.705 17.7708 105.044 17.5781 104.2 17.5781C103.346 17.5781 102.653 17.776 102.122 18.1719C101.591 18.5677 101.299 19.0833 101.247 19.7188H96.9187C97.0229 18.0208 97.7208 16.6719 99.0125 15.6719C100.304 14.6615 102.08 14.1562 104.341 14.1562C106.601 14.1562 108.351 14.6615 109.591 15.6719C110.83 16.6719 111.45 18.0521 111.45 19.8125V31H106.95V28.6719H106.887C106.45 29.474 105.851 30.1094 105.091 30.5781C104.33 31.0469 103.32 31.2812 102.059 31.2812ZM103.341 28.0781C104.445 28.0781 105.32 27.7865 105.966 27.2031C106.611 26.6094 106.934 25.8646 106.934 24.9688V23.3125C106.674 23.4583 106.242 23.5938 105.637 23.7188C105.033 23.8333 104.361 23.9479 103.622 24.0625C102.83 24.1875 102.158 24.4167 101.606 24.75C101.065 25.0729 100.794 25.5625 100.794 26.2188C100.794 26.8021 101.023 27.2604 101.481 27.5938C101.95 27.9167 102.57 28.0781 103.341 28.0781ZM113.74 31V14.5H118.349V31H113.74ZM116.037 12.4219C115.276 12.4219 114.646 12.1927 114.146 11.7344C113.646 11.2656 113.396 10.6771 113.396 9.96875C113.396 9.26042 113.646 8.67708 114.146 8.21875C114.646 7.75 115.276 7.51562 116.037 7.51562C116.787 7.51562 117.412 7.75 117.912 8.21875C118.412 8.67708 118.662 9.26042 118.662 9.96875C118.662 10.6771 118.412 11.2656 117.912 11.7344C117.412 12.1927 116.787 12.4219 116.037 12.4219ZM127.514 31.4062C125.369 31.4062 123.592 30.9167 122.186 29.9375C120.79 28.9583 120.02 27.5833 119.874 25.8125H124.405C124.488 26.5312 124.79 27.0938 125.311 27.5C125.832 27.9062 126.54 28.1094 127.436 28.1094C128.29 28.1094 128.962 27.9479 129.452 27.625C129.941 27.3021 130.186 26.8854 130.186 26.375C130.186 25.9375 129.994 25.5885 129.608 25.3281C129.233 25.0573 128.712 24.8542 128.046 24.7188L125.155 24.1562C121.884 23.5312 120.249 21.9271 120.249 19.3438C120.249 17.7812 120.879 16.526 122.139 15.5781C123.4 14.6302 125.103 14.1562 127.249 14.1562C129.384 14.1562 131.103 14.6562 132.405 15.6562C133.707 16.6562 134.379 18.0156 134.421 19.7344H130.155C130.145 19.0781 129.879 18.5312 129.358 18.0938C128.848 17.6458 128.186 17.4219 127.374 17.4219C126.582 17.4219 125.962 17.5938 125.514 17.9375C125.066 18.2708 124.842 18.6823 124.842 19.1719C124.842 19.599 125.014 19.9479 125.358 20.2188C125.712 20.4896 126.207 20.6927 126.842 20.8281L129.967 21.4375C131.634 21.7604 132.858 22.2917 133.639 23.0312C134.431 23.7604 134.827 24.7344 134.827 25.9531C134.827 27.0469 134.514 28.0052 133.889 28.8281C133.275 29.6406 132.415 30.276 131.311 30.7344C130.217 31.1823 128.952 31.4062 127.514 31.4062ZM143.883 31.375C142.216 31.375 140.763 31.0052 139.523 30.2656C138.294 29.526 137.336 28.5104 136.648 27.2188C135.971 25.9167 135.633 24.4323 135.633 22.7656C135.633 21.0885 135.976 19.599 136.664 18.2969C137.362 16.9948 138.32 15.974 139.539 15.2344C140.758 14.4948 142.153 14.125 143.726 14.125C145.351 14.125 146.768 14.4896 147.976 15.2188C149.195 15.9375 150.143 16.9427 150.82 18.2344C151.508 19.5156 151.851 20.9948 151.851 22.6719V23.9062H140.117C140.159 25.125 140.518 26.099 141.195 26.8281C141.872 27.5573 142.815 27.9219 144.023 27.9219C144.919 27.9219 145.664 27.7292 146.258 27.3438C146.862 26.9583 147.268 26.4479 147.476 25.8125H151.679C151.481 26.9062 151.018 27.8698 150.289 28.7031C149.56 29.5365 148.643 30.1927 147.539 30.6719C146.435 31.1406 145.216 31.375 143.883 31.375ZM140.148 20.9688H147.508C147.393 19.9375 147.008 19.125 146.351 18.5312C145.705 17.9271 144.862 17.625 143.82 17.625C142.789 17.625 141.95 17.9271 141.304 18.5312C140.659 19.125 140.273 19.9375 140.148 20.9688Z" fill="white"/>
</svg>
