<svg width="119" height="53" viewBox="0 0 119 53" fill="none" xmlns="http://www.w3.org/2000/svg">
<path d="M63.5064 45.5828C62.7701 45.5828 62.0946 45.4219 61.4798 45.1003C60.8721 44.7786 60.3789 44.2889 60 43.6312H59.9786V45.3576H57.7589V29.3803H60.0215V35.6747H60.0429C60.4075 35.0456 60.8936 34.5774 61.5012 34.27C62.1089 33.9626 62.7808 33.8089 63.5172 33.8089C64.4894 33.8089 65.3436 34.0591 66.08 34.5595C66.8163 35.0528 67.3882 35.7426 67.7956 36.6291C68.2103 37.5084 68.4176 38.5306 68.4176 39.6959C68.4176 40.8611 68.2138 41.8869 67.8064 42.7734C67.3989 43.6526 66.827 44.3425 66.0907 44.8429C65.3544 45.3362 64.4929 45.5828 63.5064 45.5828ZM63.0453 43.6312C63.9604 43.6312 64.7003 43.2952 65.265 42.6232C65.8369 41.9513 66.1228 40.9755 66.1228 39.6959C66.1228 38.4162 65.8369 37.4405 65.265 36.7685C64.7003 36.0894 63.9604 35.7498 63.0453 35.7498C62.0803 35.7498 61.3082 36.1108 60.7292 36.8328C60.1573 37.5477 59.8713 38.502 59.8713 39.6959C59.8713 40.8825 60.1573 41.8369 60.7292 42.5589C61.3082 43.2738 62.0803 43.6312 63.0453 43.6312Z" fill="white"/>
<path d="M69.2548 49.8398V47.9311H70.4772C70.8347 47.9311 71.1242 47.8275 71.3458 47.6202C71.5746 47.42 71.7747 47.0876 71.9463 46.6229L72.461 45.2825L68.086 34.0341H70.5094L72.772 40.2427C72.9221 40.6645 73.0686 41.0898 73.2116 41.5188C73.3546 41.9405 73.494 42.3623 73.6298 42.7841C73.7656 42.3623 73.905 41.9405 74.048 41.5188C74.1981 41.0898 74.3483 40.6645 74.4984 40.2427L76.7288 34.0341H79.12L73.9729 47.3414C73.3367 49.007 72.243 49.8398 70.6917 49.8398H69.2548Z" fill="white"/>
<path d="M8.60292 18.848C6.96894 18.848 5.50244 18.4681 4.20342 17.7083C2.9044 16.9403 1.87908 15.8537 1.12745 14.4485C0.375816 13.0351 0 11.3644 0 9.43625C0 7.49181 0.375816 5.81698 1.12745 4.41175C1.87908 2.99836 2.9044 1.91176 4.20342 1.15196C5.50244 0.383986 6.96894 0 8.60292 0C10.2451 0 11.7116 0.383986 13.0024 1.15196C14.3014 1.91176 15.3268 2.99836 16.0784 4.41175C16.8382 5.81698 17.2181 7.49181 17.2181 9.43625C17.2181 11.3725 16.8382 13.0433 16.0784 14.4485C15.3268 15.8537 14.3014 16.9403 13.0024 17.7083C11.7116 18.4681 10.2451 18.848 8.60292 18.848ZM8.60292 15.5147C10.0163 15.5147 11.1724 14.9877 12.071 13.9338C12.9697 12.8717 13.4191 11.3725 13.4191 9.43625C13.4191 7.49181 12.9697 5.98855 12.071 4.92646C11.1724 3.86437 10.0163 3.33333 8.60292 3.33333C7.1977 3.33333 6.04574 3.86437 5.14705 4.92646C4.24836 5.98855 3.79901 7.49181 3.79901 9.43625C3.79901 11.3725 4.24836 12.8717 5.14705 13.9338C6.04574 14.9877 7.1977 15.5147 8.60292 15.5147Z" fill="white"/>
<path d="M18.524 23.6764V5.61273H22.0901V7.36518H22.1269C22.5272 6.69525 23.0542 6.1928 23.7078 5.85783C24.3695 5.51469 25.1212 5.34312 25.9627 5.34312C27.0656 5.34312 28.0338 5.62907 28.8671 6.20097C29.7086 6.76469 30.3622 7.55309 30.8279 8.56616C31.3017 9.57922 31.5386 10.7475 31.5386 12.071C31.5386 13.4191 31.3058 14.5996 30.8401 15.6127C30.3744 16.6258 29.7208 17.4142 28.8793 17.9779C28.046 18.5416 27.0656 18.8235 25.9382 18.8235C24.1816 18.8235 22.9276 18.0882 22.1759 16.6176H22.1392V23.6764H18.524ZM25.0068 15.8823C25.881 15.8823 26.5795 15.5514 27.1024 14.8897C27.6334 14.2197 27.899 13.2802 27.899 12.071C27.899 10.8619 27.6334 9.92645 27.1024 9.26468C26.5795 8.59475 25.881 8.25978 25.0068 8.25978C24.0918 8.25978 23.3565 8.60701 22.8009 9.30145C22.2454 9.99589 21.9676 10.9191 21.9676 12.071C21.9676 13.2312 22.2454 14.1585 22.8009 14.8529C23.3565 15.5392 24.0918 15.8823 25.0068 15.8823Z" fill="white"/>
<path d="M38.6778 18.848C37.3707 18.848 36.231 18.558 35.2587 17.9779C34.2947 17.3978 33.5431 16.6013 33.0038 15.5882C32.4728 14.567 32.2073 13.4027 32.2073 12.0956C32.2073 10.7802 32.4769 9.61191 33.0161 8.59067C33.5635 7.56943 34.3151 6.76877 35.271 6.18871C36.2269 5.60865 37.3216 5.31861 38.5553 5.31861C39.8298 5.31861 40.9409 5.60456 41.8886 6.17646C42.8445 6.74018 43.588 7.52858 44.119 8.54165C44.6582 9.54655 44.9278 10.7067 44.9278 12.022V12.9902H35.7244C35.7571 13.946 36.039 14.7099 36.57 15.2818C37.1011 15.8537 37.8404 16.1397 38.7881 16.1397C39.4908 16.1397 40.0749 15.9885 40.5406 15.6862C41.0144 15.3839 41.3331 14.9836 41.4965 14.4853H44.793C44.6378 15.3431 44.2742 16.0988 43.7023 16.7524C43.1304 17.406 42.4115 17.9207 41.5455 18.2965C40.6795 18.6642 39.7236 18.848 38.6778 18.848ZM35.7489 10.6862H41.521C41.4311 9.87743 41.1288 9.24017 40.6141 8.77449C40.1076 8.30063 39.4458 8.06371 38.6288 8.06371C37.82 8.06371 37.1623 8.30063 36.6558 8.77449C36.1493 9.24017 35.847 9.87743 35.7489 10.6862Z" fill="white"/>
<path d="M49.7263 11.3603V18.5539H46.1112V5.61273H49.6651V7.64704C50.1062 6.91175 50.6577 6.34394 51.3195 5.94361C51.9812 5.54329 52.7778 5.34312 53.7092 5.34312C55.0817 5.34312 56.1806 5.78838 57.0057 6.67891C57.8309 7.56126 58.2435 8.81942 58.2435 10.4534V18.5539H54.6406V11.1152C54.6406 10.2492 54.4322 9.59148 54.0156 9.14213C53.5989 8.68462 53.0147 8.45586 52.2631 8.45586C51.5196 8.45586 50.911 8.6887 50.4371 9.15439C49.9633 9.62007 49.7263 10.3554 49.7263 11.3603Z" fill="white"/>
<path d="M60.1499 18.5539V0.294117H67.4538C68.8263 0.294117 70.0109 0.539214 71.0077 1.02941C72.0126 1.51143 72.7846 2.20179 73.3238 3.10048C73.8712 3.99917 74.1449 5.06126 74.1449 6.28675C74.1449 7.4959 73.8549 8.54165 73.2748 9.424C72.7029 10.3063 71.9064 10.9845 70.8851 11.4583L74.5493 18.5539H70.5052L67.2699 12.1691C67.2618 12.1691 67.2495 12.1691 67.2332 12.1691H63.9244V18.5539H60.1499ZM63.9244 9.14213H67.2332C68.2299 9.14213 69.0142 8.88478 69.5861 8.37008C70.1662 7.8472 70.4562 7.15276 70.4562 6.28675C70.4562 5.41257 70.1662 4.71813 69.5861 4.20342C69.006 3.68872 68.2176 3.43136 67.2209 3.43136H63.9244V9.14213Z" fill="white"/>
<path d="M79.2743 18.7745C77.9835 18.7745 76.9173 18.4518 76.0758 17.8063C75.2425 17.1609 74.8258 16.1928 74.8258 14.9019C74.8258 13.9297 75.0586 13.1699 75.5243 12.6225C75.99 12.067 76.6068 11.6626 77.3748 11.4093C78.1428 11.156 78.9761 10.9885 79.8748 10.9068C81.0594 10.7843 81.8887 10.6617 82.3625 10.5392C82.8364 10.4166 83.0733 10.147 83.0733 9.73037V9.64458C83.0733 9.17073 82.8854 8.78266 82.5096 8.48037C82.1338 8.17808 81.615 8.02694 80.9532 8.02694C80.2833 8.02694 79.74 8.18217 79.3233 8.49263C78.9067 8.80308 78.6779 9.20749 78.6371 9.70586H75.2425C75.3242 8.37416 75.8716 7.31616 76.8846 6.53185C77.8977 5.73937 79.2907 5.34312 81.0635 5.34312C82.8364 5.34312 84.2089 5.73937 85.1812 6.53185C86.1534 7.31616 86.6395 8.39867 86.6395 9.77939V18.5539H83.1101V16.7279H83.0611C82.7179 17.357 82.2482 17.8553 81.6518 18.223C81.0554 18.5906 80.2629 18.7745 79.2743 18.7745ZM80.2792 16.2622C81.1452 16.2622 81.8315 16.0335 82.338 15.5759C82.8446 15.1103 83.0978 14.5261 83.0978 13.8235V12.5245C82.8936 12.6389 82.5545 12.7451 82.0807 12.8431C81.6068 12.933 81.0799 13.0228 80.4998 13.1127C79.8789 13.2108 79.3519 13.3905 78.9189 13.6519C78.4941 13.9052 78.2817 14.2892 78.2817 14.8039C78.2817 15.2614 78.4614 15.6209 78.8209 15.8823C79.1885 16.1356 79.6746 16.2622 80.2792 16.2622Z" fill="white"/>
<path d="M88.4356 18.5539V5.61273H92.0508V18.5539H88.4356ZM90.237 3.98283C89.6406 3.98283 89.1464 3.8031 88.7542 3.44362C88.362 3.07597 88.166 2.61437 88.166 2.05882C88.166 1.50326 88.362 1.04575 88.7542 0.686273C89.1464 0.318627 89.6406 0.134804 90.237 0.134804C90.8253 0.134804 91.3155 0.318627 91.7076 0.686273C92.0998 1.04575 92.2959 1.50326 92.2959 2.05882C92.2959 2.61437 92.0998 3.07597 91.7076 3.44362C91.3155 3.8031 90.8253 3.98283 90.237 3.98283Z" fill="white"/>
<path d="M99.239 18.8725C97.556 18.8725 96.163 18.4885 95.0601 17.7205C93.9653 16.9526 93.3607 15.8741 93.2463 14.4853H96.8003C96.8656 15.049 97.1025 15.4902 97.511 15.8088C97.9195 16.1274 98.4751 16.2867 99.1777 16.2867C99.8476 16.2867 100.375 16.1601 100.759 15.9068C101.143 15.6536 101.335 15.3268 101.335 14.9264C101.335 14.5833 101.183 14.3096 100.881 14.1054C100.587 13.8929 100.179 13.7336 99.6556 13.6274L97.3885 13.1862C94.8231 12.696 93.5405 11.4379 93.5405 9.41174C93.5405 8.18625 94.0347 7.20178 95.0233 6.45832C96.0119 5.71486 97.3476 5.34312 99.0306 5.34312C100.705 5.34312 102.054 5.73528 103.075 6.51959C104.096 7.3039 104.623 8.37008 104.656 9.71811H101.31C101.302 9.20341 101.094 8.77449 100.685 8.43135C100.285 8.08005 99.7659 7.90439 99.1287 7.90439C98.5078 7.90439 98.0217 8.0392 97.6703 8.3088C97.319 8.57024 97.1434 8.89295 97.1434 9.27694C97.1434 9.6119 97.2782 9.8856 97.5478 10.098C97.8256 10.3104 98.2136 10.4697 98.712 10.576L101.163 11.0539C102.47 11.3072 103.43 11.7238 104.043 12.3039C104.664 12.8758 104.974 13.6397 104.974 14.5956C104.974 15.4534 104.729 16.205 104.239 16.8504C103.757 17.4877 103.083 17.9861 102.217 18.3455C101.359 18.6969 100.366 18.8725 99.239 18.8725Z" fill="white"/>
<path d="M112.077 18.848C110.77 18.848 109.63 18.558 108.658 17.9779C107.694 17.3978 106.942 16.6013 106.403 15.5882C105.872 14.567 105.606 13.4027 105.606 12.0956C105.606 10.7802 105.876 9.61191 106.415 8.59067C106.962 7.56943 107.714 6.76877 108.67 6.18871C109.626 5.60865 110.72 5.31861 111.954 5.31861C113.229 5.31861 114.34 5.60456 115.287 6.17646C116.243 6.74018 116.987 7.52858 117.518 8.54165C118.057 9.54655 118.327 10.7067 118.327 12.022V12.9902H109.123C109.156 13.946 109.438 14.7099 109.969 15.2818C110.5 15.8537 111.239 16.1397 112.187 16.1397C112.89 16.1397 113.474 15.9885 113.939 15.6862C114.413 15.3839 114.732 14.9836 114.895 14.4853H118.192C118.037 15.3431 117.673 16.0988 117.101 16.7524C116.529 17.406 115.81 17.9207 114.944 18.2965C114.078 18.6642 113.122 18.848 112.077 18.848ZM109.148 10.6862H114.92C114.83 9.87743 114.528 9.24017 114.013 8.77449C113.506 8.30063 112.845 8.06371 112.028 8.06371C111.219 8.06371 110.561 8.30063 110.055 8.77449C109.548 9.24017 109.246 9.87743 109.148 10.6862Z" fill="white"/>
<path d="M90.2083 24.3576H83.1495V31.4164C87.0133 31.4164 90.2083 28.2214 90.2083 24.3576Z" fill="#00CC92"/>
<path d="M97.2671 38.4752C97.2671 34.6114 94.0721 31.4164 90.2083 31.4164H83.1495V38.4752V45.534H90.2083V38.4752C90.2083 42.339 93.4034 45.534 97.2671 45.534C101.131 45.534 104.326 42.339 104.326 38.4752C104.326 42.339 107.521 45.534 111.385 45.534H104.326C104.326 49.3978 107.521 52.5928 111.385 52.5928C115.248 52.5928 118.444 49.3978 118.444 45.534V38.4752V31.4164C114.58 31.4164 111.385 34.6114 111.385 38.4752C111.385 34.6114 108.19 31.4164 104.326 31.4164C100.462 31.4164 97.2671 34.6114 97.2671 38.4752Z" fill="#00CC92"/>
</svg>
